<svg preserveAspectRatio="none" width="100%" height="100%" overflow="visible" style="display: block;" viewBox="0 0 200 37.5185" fill="none" xmlns="http://www.w3.org/2000/svg">
<g id="Group 41148">
<path id="Vector" d="M186.747 5.59051C186.799 5.481 186.91 5.41129 187.031 5.41129C187.152 5.41129 187.263 5.48071 187.315 5.58988L198.571 28.9909C199.233 30.3674 198.23 31.9628 196.702 31.9628C195.878 31.9628 195.133 31.4752 194.803 30.7206L193.073 26.768H180.916L179.171 30.757C178.85 31.4895 178.127 31.9628 177.327 31.9628C175.846 31.9628 174.873 30.4178 175.512 29.0821L186.747 5.59051ZM187.013 13.0954L185.426 16.7029L182.539 23.1243H191.486L188.636 16.739L187.085 13.0954H187.013Z" fill="var(--fill-0, black)"/>
<path id="Vector_2" d="M153.689 31.9268C152.603 31.9268 151.723 31.0465 151.723 29.9606V5.41129H157.747C159.094 5.41129 160.393 5.54356 161.644 5.80812C162.918 6.07267 164.049 6.5176 165.035 7.14291C166.021 7.76822 166.802 8.59795 167.38 9.63212C167.957 10.6663 168.245 11.9409 168.245 13.4561C168.245 15.2118 167.836 16.739 167.019 18.0377C166.201 19.3364 164.962 20.3345 163.303 21.032L167.883 28.9354C168.653 30.2637 167.694 31.9268 166.159 31.9268C165.423 31.9268 164.746 31.5206 164.4 30.8706L159.623 21.8978C159.214 21.9218 158.709 21.9459 158.108 21.9699C157.531 21.9699 157.05 21.9699 156.665 21.9699H155.655V29.9606C155.655 31.0465 154.775 31.9268 153.689 31.9268ZM155.655 18.6871H158.216C159.539 18.6871 160.597 18.5187 161.391 18.182C162.209 17.8453 162.834 17.4244 163.267 16.9194C163.7 16.3903 163.988 15.8251 164.133 15.2238C164.301 14.5985 164.385 14.0213 164.385 13.4922C164.385 12.3137 164.109 11.3878 163.556 10.7144C163.026 10.0169 162.281 9.52389 161.319 9.23529C160.381 8.92263 159.299 8.76631 158.072 8.76631H155.655V18.6871Z" fill="var(--fill-0, black)"/>
<path id="Vector_3" d="M136.214 31.9268C135.108 31.9268 134.212 31.0303 134.212 29.9246V8.94668H127.429C127.429 6.99414 129.012 5.41129 130.965 5.41129H141.535C143.488 5.41129 145.07 6.99414 145.07 8.94668H138.216V29.9246C138.216 31.0303 137.32 31.9268 136.214 31.9268Z" fill="var(--fill-0, black)"/>
<path id="Vector_4" d="M108.959 31.9268V5.41129H120.576C120.576 7.36383 118.993 8.94668 117.04 8.94668H112.964V16.27H117.293C118.289 16.27 119.097 17.0776 119.097 18.0738C119.097 19.07 118.289 19.8775 117.293 19.8775H112.964V28.3553H118.195C120.167 28.3553 121.766 29.9543 121.766 31.9268H108.959Z" fill="var(--fill-0, black)"/>
<path id="Vector_5" d="M90.8055 32.2875C88.4967 32.2875 86.6448 31.8185 85.2499 30.8806C83.879 29.9426 82.8809 28.5958 82.2556 26.8401C81.6544 25.0844 81.3537 23.0041 81.3537 20.5991V5.41129C83.5852 5.41129 85.3942 7.22026 85.3942 9.45174V20.6712C85.3942 23.4851 85.8151 25.5053 86.6568 26.7319C87.5226 27.9344 88.9055 28.5357 90.8055 28.5357C92.7055 28.5357 94.0763 27.9464 94.9181 26.768C95.7599 25.5895 96.1807 23.5572 96.1807 20.6712V9.48782C96.1807 7.23641 98.0059 5.41129 100.257 5.41129V20.5991C100.257 24.3028 99.4877 27.1768 97.9484 29.2211C96.4092 31.2654 94.0282 32.2875 90.8055 32.2875Z" fill="var(--fill-0, black)"/>
<path id="Vector_6" d="M72.1149 31.9628L56.6025 14.7909L56.7107 17.6769V27.9224C56.7107 30.1539 54.9017 31.9628 52.6702 31.9628V5.76042C52.6702 5.5676 52.8265 5.41129 53.0194 5.41129C53.1186 5.41129 53.2131 5.45351 53.2794 5.5274L68.7599 22.7997L68.6156 19.7693V9.48782C68.6156 7.25634 70.4246 5.44737 72.656 5.44737V31.9628H72.1149Z" fill="var(--fill-0, black)"/>
<g id="Group 41140">
<path id="Vector_7" d="M23.863 11.2559C24.6894 9.98058 25.5987 8.76435 26.5846 7.61559C28.8305 4.98779 32.8233 1.09029 36.9174 1.08226C39.4674 1.08226 42.2826 3.49308 42.9299 6.8602C42.9299 7.01288 41.4404 4.07168 38.4069 4.24044C37.4984 4.28891 36.6152 4.56474 35.8334 5.04404C31.6691 7.51915 28.4562 14.1248 28.4562 14.1891C28.4291 14.2478 28.3899 14.2997 28.3415 14.3414C28.293 14.383 28.2364 14.4133 28.1755 14.4302H28.0507C27.9677 14.4286 27.8868 14.4036 27.8167 14.3579L24.0345 11.8506C23.9849 11.8236 23.9411 11.7867 23.9055 11.7421C23.8699 11.6974 23.8434 11.6458 23.8274 11.5904C23.8114 11.5351 23.8063 11.4769 23.8124 11.4195C23.8185 11.362 23.8357 11.3064 23.863 11.2559Z" fill="url(#paint0_linear_0_4)"/>
<path id="Vector_8" d="M35.0654 28.1607C34.1154 28.8121 32.9388 29.0045 31.8274 28.7018C30.3757 28.3064 29.8716 27.7938 29.3631 27.334C31.5296 26.8461 33.6335 25.3214 34.8311 23.4788C39.3852 16.7211 38.8618 10.1786 37.5417 7.24182C37.0261 6.10401 36.4715 5.12053 35.8232 5.10515H35.7763H35.831C36.614 4.64661 37.4988 4.38274 38.4087 4.33636C41.463 4.16722 42.9438 7.21965 42.9204 7.07358C43.4047 8.79568 43.4862 12.6772 42.5097 16.7826C41.6427 20.5112 39.1821 25.3931 35.0654 28.1607Z" fill="url(#paint1_linear_0_4)"/>
<path id="Vector_9" d="M1.30215 3.84494C2.13355 2.5329 3.31073 1.48241 4.70071 0.812134C6.09069 0.14186 7.63808 -0.121491 9.16809 0.05183C12.0419 0.383037 14.4302 2.70566 14.4302 2.70566C14.4302 2.70566 11.3487 1.27414 9.08242 2.75669C5.69461 4.9805 6.73794 11.4293 10.2815 19.4807C11.5326 22.3436 12.3918 24.3349 13.1368 25.8565C16.4467 32.6164 31.3857 31.2942 31.3857 31.2942C31.3857 31.2942 25.2829 39.4239 18.0177 37.1011C12.3402 34.3253 8.05439 28.8037 3.89557 21.5093C-0.138638 14.3962 -1.10436 7.81153 1.30215 3.84494Z" fill="url(#paint2_linear_0_4)"/>
<path id="Vector_10" d="M24.5831 25.3226C23.9342 24.4232 22.9413 22.8613 21.7061 20.8733C18.4539 15.6509 13.8341 7.86278 8.83848 3.06639C9.47173 2.57728 11.1207 1.50626 14.4199 2.79213C15.0844 3.05247 20.2051 9.29251 25.5447 21.1494C26.3265 22.948 27.0692 24.3049 27.507 25.0938C27.991 25.9696 28.5028 26.7243 29.2211 27.4174C29.9091 28.0485 31.2048 29.2211 33.5502 29.0408C32.8083 29.3477 31.9984 29.6511 31.2048 29.5352C28.6093 29.2433 26.5845 28.0837 24.5831 25.3226Z" fill="url(#paint3_linear_0_4)"/>
</g>
</g>
<defs>
<linearGradient id="paint0_linear_0_4" x1="23.8099" y1="11.7245" x2="42.3888" y2="4.87018" gradientUnits="userSpaceOnUse">
<stop offset="0.138756" stop-color="#FFDE36"/>
<stop offset="1" stop-color="#E78701"/>
</linearGradient>
<linearGradient id="paint1_linear_0_4" x1="36.436" y1="4.6898" x2="36.436" y2="28.8604" gradientUnits="userSpaceOnUse">
<stop stop-color="#842420"/>
<stop offset="0.668269" stop-color="#D9251C"/>
</linearGradient>
<linearGradient id="paint2_linear_0_4" x1="4.68981" y1="-6.91589e-08" x2="22.9079" y2="37.5185" gradientUnits="userSpaceOnUse">
<stop offset="0.471154" stop-color="#237AFC"/>
<stop offset="1" stop-color="#274D8D"/>
</linearGradient>
<linearGradient id="paint3_linear_0_4" x1="3.24678" y1="-12.0853" x2="32.4679" y2="29.5819" gradientUnits="userSpaceOnUse">
<stop stop-color="#144321"/>
<stop offset="0.706731" stop-color="#19AA41"/>
</linearGradient>
</defs>
</svg>
